<mxfile host="app.diagrams.net" agent="Mozilla/5.0 (Windows NT 10.0; Win64; x64) AppleWebKit/537.36 (KHTML, like Gecko) Chrome/134.0.0.0 Safari/537.36" version="26.1.0">
  <diagram name="Página-1" id="ptAYf3jcV3ZSNVXvtiK4">
    <mxGraphModel dx="1674" dy="746" grid="1" gridSize="10" guides="1" tooltips="1" connect="1" arrows="1" fold="1" page="1" pageScale="1" pageWidth="2910" pageHeight="1030" math="0" shadow="0">
      <root>
        <mxCell id="0" />
        <mxCell id="1" parent="0" />
        <mxCell id="d49fMDWEcjazd6GvnsSK-1" value="Cierre formato de concurrencia" style="swimlane;childLayout=stackLayout;resizeParent=1;resizeParentMax=0;horizontal=1;startSize=20;horizontalStack=0;html=1;" parent="1" vertex="1">
          <mxGeometry x="40" y="20" width="3360" height="1110" as="geometry" />
        </mxCell>
        <mxCell id="d49fMDWEcjazd6GvnsSK-2" value="ZonaSer Prestador - Concurrencia" style="swimlane;startSize=20;horizontal=0;html=1;" parent="d49fMDWEcjazd6GvnsSK-1" vertex="1">
          <mxGeometry y="20" width="3360" height="1090" as="geometry" />
        </mxCell>
        <mxCell id="d49fMDWEcjazd6GvnsSK-30" style="edgeStyle=orthogonalEdgeStyle;rounded=0;orthogonalLoop=1;jettySize=auto;html=1;" parent="d49fMDWEcjazd6GvnsSK-2" source="d49fMDWEcjazd6GvnsSK-25" target="eIDD2qYjzkZ-Xh7ebVP3-45" edge="1">
          <mxGeometry relative="1" as="geometry">
            <mxPoint x="1325" y="320" as="targetPoint" />
          </mxGeometry>
        </mxCell>
        <mxCell id="d49fMDWEcjazd6GvnsSK-39" value="SI" style="edgeLabel;html=1;align=center;verticalAlign=middle;resizable=0;points=[];" parent="d49fMDWEcjazd6GvnsSK-30" vertex="1" connectable="0">
          <mxGeometry x="-0.1805" y="1" relative="1" as="geometry">
            <mxPoint as="offset" />
          </mxGeometry>
        </mxCell>
        <mxCell id="d49fMDWEcjazd6GvnsSK-5" value="Inicio" style="points=[[0.145,0.145,0],[0.5,0,0],[0.855,0.145,0],[1,0.5,0],[0.855,0.855,0],[0.5,1,0],[0.145,0.855,0],[0,0.5,0]];shape=mxgraph.bpmn.event;html=1;verticalLabelPosition=bottom;labelBackgroundColor=#ffffff;verticalAlign=top;align=center;perimeter=ellipsePerimeter;outlineConnect=0;aspect=fixed;outline=standard;symbol=general;fillColor=#f8cecc;strokeColor=#b85450;" parent="d49fMDWEcjazd6GvnsSK-2" vertex="1">
          <mxGeometry x="50" y="60" width="50" height="50" as="geometry" />
        </mxCell>
        <mxCell id="d49fMDWEcjazd6GvnsSK-11" value="Buscar Solicitud de Servicio de Salud A3" style="points=[[0.25,0,0],[0.5,0,0],[0.75,0,0],[1,0.25,0],[1,0.5,0],[1,0.75,0],[0.75,1,0],[0.5,1,0],[0.25,1,0],[0,0.75,0],[0,0.5,0],[0,0.25,0]];shape=mxgraph.bpmn.task2;whiteSpace=wrap;rectStyle=rounded;size=10;html=1;container=1;expand=0;collapsible=0;taskMarker=user;fillColor=#fff2cc;strokeColor=#d6b656;" parent="d49fMDWEcjazd6GvnsSK-2" vertex="1">
          <mxGeometry x="280" y="45" width="120" height="80" as="geometry" />
        </mxCell>
        <mxCell id="d49fMDWEcjazd6GvnsSK-17" value="SI" style="edgeStyle=orthogonalEdgeStyle;rounded=0;orthogonalLoop=1;jettySize=auto;html=1;" parent="d49fMDWEcjazd6GvnsSK-2" source="d49fMDWEcjazd6GvnsSK-13" target="d49fMDWEcjazd6GvnsSK-18" edge="1">
          <mxGeometry relative="1" as="geometry">
            <mxPoint x="560" y="85" as="targetPoint" />
          </mxGeometry>
        </mxCell>
        <mxCell id="d49fMDWEcjazd6GvnsSK-13" value="¿A3 Hospitalario?" style="points=[[0.25,0.25,0],[0.5,0,0],[0.75,0.25,0],[1,0.5,0],[0.75,0.75,0],[0.5,1,0],[0.25,0.75,0],[0,0.5,0]];shape=mxgraph.bpmn.gateway2;html=1;verticalLabelPosition=top;labelBackgroundColor=#ffffff;verticalAlign=bottom;align=center;perimeter=rhombusPerimeter;outlineConnect=0;outline=none;symbol=none;fillColor=#d5e8d4;strokeColor=#82b366;labelPosition=center;fontSize=10;" parent="d49fMDWEcjazd6GvnsSK-2" vertex="1">
          <mxGeometry x="440" y="60" width="50" height="50" as="geometry" />
        </mxCell>
        <mxCell id="d49fMDWEcjazd6GvnsSK-12" style="edgeStyle=orthogonalEdgeStyle;rounded=0;orthogonalLoop=1;jettySize=auto;html=1;" parent="d49fMDWEcjazd6GvnsSK-2" source="d49fMDWEcjazd6GvnsSK-11" target="d49fMDWEcjazd6GvnsSK-13" edge="1">
          <mxGeometry relative="1" as="geometry">
            <mxPoint x="440" y="85" as="targetPoint" />
          </mxGeometry>
        </mxCell>
        <mxCell id="d49fMDWEcjazd6GvnsSK-15" value="Fin" style="points=[[0.145,0.145,0],[0.5,0,0],[0.855,0.145,0],[1,0.5,0],[0.855,0.855,0],[0.5,1,0],[0.145,0.855,0],[0,0.5,0]];shape=mxgraph.bpmn.event;html=1;verticalLabelPosition=bottom;labelBackgroundColor=#ffffff;verticalAlign=top;align=center;perimeter=ellipsePerimeter;outlineConnect=0;aspect=fixed;outline=end;symbol=terminate2;fillColor=#f8cecc;strokeColor=#b85450;" parent="d49fMDWEcjazd6GvnsSK-2" vertex="1">
          <mxGeometry x="440" y="160" width="50" height="50" as="geometry" />
        </mxCell>
        <mxCell id="d49fMDWEcjazd6GvnsSK-14" style="edgeStyle=orthogonalEdgeStyle;rounded=0;orthogonalLoop=1;jettySize=auto;html=1;" parent="d49fMDWEcjazd6GvnsSK-2" source="d49fMDWEcjazd6GvnsSK-13" target="d49fMDWEcjazd6GvnsSK-15" edge="1">
          <mxGeometry relative="1" as="geometry">
            <mxPoint x="465" y="170" as="targetPoint" />
          </mxGeometry>
        </mxCell>
        <mxCell id="d49fMDWEcjazd6GvnsSK-16" value="NO" style="edgeLabel;html=1;align=center;verticalAlign=middle;resizable=0;points=[];fontSize=10;" parent="d49fMDWEcjazd6GvnsSK-14" vertex="1" connectable="0">
          <mxGeometry x="-0.4619" relative="1" as="geometry">
            <mxPoint as="offset" />
          </mxGeometry>
        </mxCell>
        <mxCell id="d49fMDWEcjazd6GvnsSK-18" value="Mostrar campo de fecha, diagnostico y motivo de egreso" style="points=[[0.25,0,0],[0.5,0,0],[0.75,0,0],[1,0.25,0],[1,0.5,0],[1,0.75,0],[0.75,1,0],[0.5,1,0],[0.25,1,0],[0,0.75,0],[0,0.5,0],[0,0.25,0]];shape=mxgraph.bpmn.task2;whiteSpace=wrap;rectStyle=rounded;size=10;html=1;container=1;expand=0;collapsible=0;taskMarker=script;fillColor=#fff2cc;strokeColor=#d6b656;" parent="d49fMDWEcjazd6GvnsSK-2" vertex="1">
          <mxGeometry x="540" y="45" width="120" height="80" as="geometry" />
        </mxCell>
        <mxCell id="d49fMDWEcjazd6GvnsSK-20" value="Registrar información de egreso" style="points=[[0.25,0,0],[0.5,0,0],[0.75,0,0],[1,0.25,0],[1,0.5,0],[1,0.75,0],[0.75,1,0],[0.5,1,0],[0.25,1,0],[0,0.75,0],[0,0.5,0],[0,0.25,0]];shape=mxgraph.bpmn.task2;whiteSpace=wrap;rectStyle=rounded;size=10;html=1;container=1;expand=0;collapsible=0;taskMarker=user;fillColor=#fff2cc;strokeColor=#d6b656;" parent="d49fMDWEcjazd6GvnsSK-2" vertex="1">
          <mxGeometry x="810" y="45" width="120" height="80" as="geometry" />
        </mxCell>
        <mxCell id="d49fMDWEcjazd6GvnsSK-22" value="Clic botón&amp;nbsp;&lt;div&gt;Confirmar Fecha&amp;nbsp;&lt;/div&gt;&lt;div&gt;Egreso&lt;/div&gt;" style="points=[[0.145,0.145,0],[0.5,0,0],[0.855,0.145,0],[1,0.5,0],[0.855,0.855,0],[0.5,1,0],[0.145,0.855,0],[0,0.5,0]];shape=mxgraph.bpmn.event;html=1;verticalLabelPosition=top;labelBackgroundColor=#ffffff;verticalAlign=bottom;align=center;perimeter=ellipsePerimeter;outlineConnect=0;aspect=fixed;outline=catching;symbol=signal;fillColor=#f5f5f5;strokeColor=#666666;fontSize=10;labelPosition=center;fontColor=#333333;" parent="d49fMDWEcjazd6GvnsSK-2" vertex="1">
          <mxGeometry x="980" y="60" width="50" height="50" as="geometry" />
        </mxCell>
        <mxCell id="d49fMDWEcjazd6GvnsSK-21" style="edgeStyle=orthogonalEdgeStyle;rounded=0;orthogonalLoop=1;jettySize=auto;html=1;" parent="d49fMDWEcjazd6GvnsSK-2" source="d49fMDWEcjazd6GvnsSK-20" target="d49fMDWEcjazd6GvnsSK-22" edge="1">
          <mxGeometry relative="1" as="geometry">
            <mxPoint x="990" y="85" as="targetPoint" />
          </mxGeometry>
        </mxCell>
        <mxCell id="d49fMDWEcjazd6GvnsSK-25" value="¿A3 Tiene formato de&amp;nbsp;&lt;div&gt;concurrencia?&lt;/div&gt;" style="points=[[0.25,0.25,0],[0.5,0,0],[0.75,0.25,0],[1,0.5,0],[0.75,0.75,0],[0.5,1,0],[0.25,0.75,0],[0,0.5,0]];shape=mxgraph.bpmn.gateway2;html=1;verticalLabelPosition=top;labelBackgroundColor=#ffffff;verticalAlign=bottom;align=center;perimeter=rhombusPerimeter;outlineConnect=0;outline=none;symbol=none;fillColor=#d5e8d4;strokeColor=#82b366;fontSize=10;labelPosition=center;" parent="d49fMDWEcjazd6GvnsSK-2" vertex="1">
          <mxGeometry x="1190" y="60" width="50" height="50" as="geometry" />
        </mxCell>
        <mxCell id="d49fMDWEcjazd6GvnsSK-24" style="edgeStyle=orthogonalEdgeStyle;rounded=0;orthogonalLoop=1;jettySize=auto;html=1;" parent="d49fMDWEcjazd6GvnsSK-2" source="d49fMDWEcjazd6GvnsSK-22" target="d49fMDWEcjazd6GvnsSK-31" edge="1">
          <mxGeometry relative="1" as="geometry">
            <mxPoint x="1080" y="85" as="targetPoint" />
          </mxGeometry>
        </mxCell>
        <mxCell id="d49fMDWEcjazd6GvnsSK-28" value="Fin" style="points=[[0.145,0.145,0],[0.5,0,0],[0.855,0.145,0],[1,0.5,0],[0.855,0.855,0],[0.5,1,0],[0.145,0.855,0],[0,0.5,0]];shape=mxgraph.bpmn.event;html=1;verticalLabelPosition=bottom;labelBackgroundColor=#ffffff;verticalAlign=top;align=center;perimeter=ellipsePerimeter;outlineConnect=0;aspect=fixed;outline=end;symbol=terminate2;fillColor=#f8cecc;strokeColor=#b85450;" parent="d49fMDWEcjazd6GvnsSK-2" vertex="1">
          <mxGeometry x="1305" y="59.999999999999886" width="50" height="50" as="geometry" />
        </mxCell>
        <mxCell id="d49fMDWEcjazd6GvnsSK-27" style="edgeStyle=orthogonalEdgeStyle;rounded=0;orthogonalLoop=1;jettySize=auto;html=1;" parent="d49fMDWEcjazd6GvnsSK-2" source="d49fMDWEcjazd6GvnsSK-25" target="d49fMDWEcjazd6GvnsSK-28" edge="1">
          <mxGeometry relative="1" as="geometry">
            <mxPoint x="1265" y="169.9999999999999" as="targetPoint" />
          </mxGeometry>
        </mxCell>
        <mxCell id="d49fMDWEcjazd6GvnsSK-29" value="NO" style="edgeLabel;html=1;align=center;verticalAlign=middle;resizable=0;points=[];" parent="d49fMDWEcjazd6GvnsSK-27" vertex="1" connectable="0">
          <mxGeometry x="-0.3768" relative="1" as="geometry">
            <mxPoint as="offset" />
          </mxGeometry>
        </mxCell>
        <mxCell id="d49fMDWEcjazd6GvnsSK-36" style="edgeStyle=orthogonalEdgeStyle;rounded=0;orthogonalLoop=1;jettySize=auto;html=1;" parent="d49fMDWEcjazd6GvnsSK-2" source="d49fMDWEcjazd6GvnsSK-31" target="d49fMDWEcjazd6GvnsSK-25" edge="1">
          <mxGeometry relative="1" as="geometry" />
        </mxCell>
        <mxCell id="d49fMDWEcjazd6GvnsSK-37" value="SI" style="edgeLabel;html=1;align=center;verticalAlign=middle;resizable=0;points=[];" parent="d49fMDWEcjazd6GvnsSK-36" vertex="1" connectable="0">
          <mxGeometry x="-0.1667" y="1" relative="1" as="geometry">
            <mxPoint as="offset" />
          </mxGeometry>
        </mxCell>
        <mxCell id="d49fMDWEcjazd6GvnsSK-31" value="¿Todos los campos&amp;nbsp;&lt;div&gt;registrados?&lt;/div&gt;" style="points=[[0.25,0.25,0],[0.5,0,0],[0.75,0.25,0],[1,0.5,0],[0.75,0.75,0],[0.5,1,0],[0.25,0.75,0],[0,0.5,0]];shape=mxgraph.bpmn.gateway2;html=1;verticalLabelPosition=top;labelBackgroundColor=#ffffff;verticalAlign=bottom;align=center;perimeter=rhombusPerimeter;outlineConnect=0;outline=none;symbol=none;fillColor=#d5e8d4;strokeColor=#82b366;fontSize=10;labelPosition=center;" parent="d49fMDWEcjazd6GvnsSK-2" vertex="1">
          <mxGeometry x="1080" y="60" width="50" height="50" as="geometry" />
        </mxCell>
        <mxCell id="d49fMDWEcjazd6GvnsSK-33" style="edgeStyle=orthogonalEdgeStyle;rounded=0;orthogonalLoop=1;jettySize=auto;html=1;" parent="d49fMDWEcjazd6GvnsSK-2" source="d49fMDWEcjazd6GvnsSK-32" target="d49fMDWEcjazd6GvnsSK-20" edge="1">
          <mxGeometry relative="1" as="geometry" />
        </mxCell>
        <mxCell id="d49fMDWEcjazd6GvnsSK-32" value="" style="points=[[0.25,0.25,0],[0.5,0,0],[0.75,0.25,0],[1,0.5,0],[0.75,0.75,0],[0.5,1,0],[0.25,0.75,0],[0,0.5,0]];shape=mxgraph.bpmn.gateway2;html=1;verticalLabelPosition=bottom;labelBackgroundColor=#ffffff;verticalAlign=top;align=center;perimeter=rhombusPerimeter;outlineConnect=0;outline=end;symbol=general;fillColor=#d5e8d4;strokeColor=#82b366;" parent="d49fMDWEcjazd6GvnsSK-2" vertex="1">
          <mxGeometry x="710" y="60.000000000000114" width="50" height="50" as="geometry" />
        </mxCell>
        <mxCell id="d49fMDWEcjazd6GvnsSK-19" style="edgeStyle=orthogonalEdgeStyle;rounded=0;orthogonalLoop=1;jettySize=auto;html=1;" parent="d49fMDWEcjazd6GvnsSK-2" source="d49fMDWEcjazd6GvnsSK-18" target="d49fMDWEcjazd6GvnsSK-32" edge="1">
          <mxGeometry relative="1" as="geometry">
            <mxPoint x="710" y="140" as="targetPoint" />
          </mxGeometry>
        </mxCell>
        <mxCell id="d49fMDWEcjazd6GvnsSK-34" style="edgeStyle=orthogonalEdgeStyle;rounded=0;orthogonalLoop=1;jettySize=auto;html=1;entryX=0.5;entryY=1;entryDx=0;entryDy=0;entryPerimeter=0;" parent="d49fMDWEcjazd6GvnsSK-2" source="d49fMDWEcjazd6GvnsSK-31" target="d49fMDWEcjazd6GvnsSK-32" edge="1">
          <mxGeometry relative="1" as="geometry">
            <Array as="points">
              <mxPoint x="1105" y="160" />
              <mxPoint x="735" y="160" />
            </Array>
          </mxGeometry>
        </mxCell>
        <mxCell id="d49fMDWEcjazd6GvnsSK-35" value="NO" style="edgeLabel;html=1;align=center;verticalAlign=middle;resizable=0;points=[];" parent="d49fMDWEcjazd6GvnsSK-34" vertex="1" connectable="0">
          <mxGeometry x="-0.0638" y="-1" relative="1" as="geometry">
            <mxPoint as="offset" />
          </mxGeometry>
        </mxCell>
        <mxCell id="eIDD2qYjzkZ-Xh7ebVP3-46" value="¿Servicios sin&amp;nbsp;&lt;div&gt;fecha de salida?&lt;/div&gt;" style="points=[[0.25,0.25,0],[0.5,0,0],[0.75,0.25,0],[1,0.5,0],[0.75,0.75,0],[0.5,1,0],[0.25,0.75,0],[0,0.5,0]];shape=mxgraph.bpmn.gateway2;html=1;verticalLabelPosition=top;labelBackgroundColor=#ffffff;verticalAlign=bottom;align=center;perimeter=rhombusPerimeter;outlineConnect=0;outline=none;symbol=none;fillColor=#d5e8d4;strokeColor=#82b366;fontSize=10;labelPosition=center;" vertex="1" parent="d49fMDWEcjazd6GvnsSK-2">
          <mxGeometry x="1741" y="255" width="50" height="50" as="geometry" />
        </mxCell>
        <mxCell id="eIDD2qYjzkZ-Xh7ebVP3-47" style="edgeStyle=orthogonalEdgeStyle;rounded=0;orthogonalLoop=1;jettySize=auto;html=1;" edge="1" parent="d49fMDWEcjazd6GvnsSK-2" source="eIDD2qYjzkZ-Xh7ebVP3-48" target="eIDD2qYjzkZ-Xh7ebVP3-51">
          <mxGeometry relative="1" as="geometry" />
        </mxCell>
        <mxCell id="eIDD2qYjzkZ-Xh7ebVP3-48" value="Insertar fecha registrada en el egreso en el campo Fecha Salida" style="points=[[0.25,0,0],[0.5,0,0],[0.75,0,0],[1,0.25,0],[1,0.5,0],[1,0.75,0],[0.75,1,0],[0.5,1,0],[0.25,1,0],[0,0.75,0],[0,0.5,0],[0,0.25,0]];shape=mxgraph.bpmn.task2;whiteSpace=wrap;rectStyle=rounded;size=10;html=1;container=1;expand=0;collapsible=0;taskMarker=script;fillColor=#fff2cc;strokeColor=#d6b656;" vertex="1" parent="d49fMDWEcjazd6GvnsSK-2">
          <mxGeometry x="1816" y="350" width="120" height="80" as="geometry" />
        </mxCell>
        <mxCell id="eIDD2qYjzkZ-Xh7ebVP3-49" style="edgeStyle=orthogonalEdgeStyle;rounded=0;orthogonalLoop=1;jettySize=auto;html=1;exitX=0.5;exitY=1;exitDx=0;exitDy=0;exitPerimeter=0;" edge="1" parent="d49fMDWEcjazd6GvnsSK-2" source="eIDD2qYjzkZ-Xh7ebVP3-46" target="eIDD2qYjzkZ-Xh7ebVP3-48">
          <mxGeometry relative="1" as="geometry">
            <mxPoint x="1901" y="370" as="targetPoint" />
            <Array as="points">
              <mxPoint x="1766" y="390" />
            </Array>
          </mxGeometry>
        </mxCell>
        <mxCell id="eIDD2qYjzkZ-Xh7ebVP3-50" value="NO" style="edgeLabel;html=1;align=center;verticalAlign=middle;resizable=0;points=[];" vertex="1" connectable="0" parent="eIDD2qYjzkZ-Xh7ebVP3-49">
          <mxGeometry x="-0.3518" y="-3" relative="1" as="geometry">
            <mxPoint as="offset" />
          </mxGeometry>
        </mxCell>
        <mxCell id="eIDD2qYjzkZ-Xh7ebVP3-51" value="" style="points=[[0.25,0.25,0],[0.5,0,0],[0.75,0.25,0],[1,0.5,0],[0.75,0.75,0],[0.5,1,0],[0.25,0.75,0],[0,0.5,0]];shape=mxgraph.bpmn.gateway2;html=1;verticalLabelPosition=bottom;labelBackgroundColor=#ffffff;verticalAlign=top;align=center;perimeter=rhombusPerimeter;outlineConnect=0;outline=end;symbol=general;fillColor=#d5e8d4;strokeColor=#82b366;" vertex="1" parent="d49fMDWEcjazd6GvnsSK-2">
          <mxGeometry x="1851" y="255" width="50" height="50" as="geometry" />
        </mxCell>
        <mxCell id="eIDD2qYjzkZ-Xh7ebVP3-52" style="edgeStyle=orthogonalEdgeStyle;rounded=0;orthogonalLoop=1;jettySize=auto;html=1;" edge="1" parent="d49fMDWEcjazd6GvnsSK-2" source="eIDD2qYjzkZ-Xh7ebVP3-46" target="eIDD2qYjzkZ-Xh7ebVP3-51">
          <mxGeometry relative="1" as="geometry">
            <mxPoint x="2011" y="280" as="targetPoint" />
          </mxGeometry>
        </mxCell>
        <mxCell id="eIDD2qYjzkZ-Xh7ebVP3-53" value="SI" style="edgeLabel;html=1;align=center;verticalAlign=middle;resizable=0;points=[];" vertex="1" connectable="0" parent="eIDD2qYjzkZ-Xh7ebVP3-52">
          <mxGeometry x="-0.1883" y="2" relative="1" as="geometry">
            <mxPoint as="offset" />
          </mxGeometry>
        </mxCell>
        <mxCell id="eIDD2qYjzkZ-Xh7ebVP3-54" value="Registrar en la pestaña egreso la Fecha, Diagnostico, y Motivo egreso" style="points=[[0.25,0,0],[0.5,0,0],[0.75,0,0],[1,0.25,0],[1,0.5,0],[1,0.75,0],[0.75,1,0],[0.5,1,0],[0.25,1,0],[0,0.75,0],[0,0.5,0],[0,0.25,0]];shape=mxgraph.bpmn.task2;whiteSpace=wrap;rectStyle=rounded;size=10;html=1;container=1;expand=0;collapsible=0;taskMarker=script;fillColor=#fff2cc;strokeColor=#d6b656;" vertex="1" parent="d49fMDWEcjazd6GvnsSK-2">
          <mxGeometry x="2301" y="240" width="120" height="80" as="geometry" />
        </mxCell>
        <mxCell id="eIDD2qYjzkZ-Xh7ebVP3-56" value="Insertar mensaje en el campo Observaciones de la pestaña egreso" style="points=[[0.25,0,0],[0.5,0,0],[0.75,0,0],[1,0.25,0],[1,0.5,0],[1,0.75,0],[0.75,1,0],[0.5,1,0],[0.25,1,0],[0,0.75,0],[0,0.5,0],[0,0.25,0]];shape=mxgraph.bpmn.task2;whiteSpace=wrap;rectStyle=rounded;size=10;html=1;container=1;expand=0;collapsible=0;taskMarker=script;fillColor=#fff2cc;strokeColor=#d6b656;" vertex="1" parent="d49fMDWEcjazd6GvnsSK-2">
          <mxGeometry x="2461" y="240" width="120" height="80" as="geometry" />
        </mxCell>
        <mxCell id="eIDD2qYjzkZ-Xh7ebVP3-57" style="edgeStyle=orthogonalEdgeStyle;rounded=0;orthogonalLoop=1;jettySize=auto;html=1;" edge="1" parent="d49fMDWEcjazd6GvnsSK-2" source="eIDD2qYjzkZ-Xh7ebVP3-54" target="eIDD2qYjzkZ-Xh7ebVP3-56">
          <mxGeometry relative="1" as="geometry">
            <mxPoint x="2731" y="280" as="targetPoint" />
          </mxGeometry>
        </mxCell>
        <mxCell id="eIDD2qYjzkZ-Xh7ebVP3-58" value="Cambiar estado de formato a CERRADO y colocar en Tipo de Cierre MANUAL" style="points=[[0.25,0,0],[0.5,0,0],[0.75,0,0],[1,0.25,0],[1,0.5,0],[1,0.75,0],[0.75,1,0],[0.5,1,0],[0.25,1,0],[0,0.75,0],[0,0.5,0],[0,0.25,0]];shape=mxgraph.bpmn.task2;whiteSpace=wrap;rectStyle=rounded;size=10;html=1;container=1;expand=0;collapsible=0;taskMarker=script;fillColor=#fff2cc;strokeColor=#d6b656;" vertex="1" parent="d49fMDWEcjazd6GvnsSK-2">
          <mxGeometry x="2700" y="520" width="120" height="80" as="geometry" />
        </mxCell>
        <mxCell id="eIDD2qYjzkZ-Xh7ebVP3-60" style="edgeStyle=orthogonalEdgeStyle;rounded=0;orthogonalLoop=1;jettySize=auto;html=1;" edge="1" parent="d49fMDWEcjazd6GvnsSK-2" source="eIDD2qYjzkZ-Xh7ebVP3-61" target="eIDD2qYjzkZ-Xh7ebVP3-63">
          <mxGeometry relative="1" as="geometry" />
        </mxCell>
        <mxCell id="eIDD2qYjzkZ-Xh7ebVP3-61" value="Mostrar en tipo cierre AUTOMATICO" style="points=[[0.25,0,0],[0.5,0,0],[0.75,0,0],[1,0.25,0],[1,0.5,0],[1,0.75,0],[0.75,1,0],[0.5,1,0],[0.25,1,0],[0,0.75,0],[0,0.5,0],[0,0.25,0]];shape=mxgraph.bpmn.task2;whiteSpace=wrap;rectStyle=rounded;size=10;html=1;container=1;expand=0;collapsible=0;taskMarker=script;fillColor=#fff2cc;strokeColor=#d6b656;" vertex="1" parent="d49fMDWEcjazd6GvnsSK-2">
          <mxGeometry x="2631" y="240" width="120" height="80" as="geometry" />
        </mxCell>
        <mxCell id="eIDD2qYjzkZ-Xh7ebVP3-63" value="Egreso por&amp;nbsp;&lt;div&gt;cierre automático&lt;/div&gt;" style="points=[[0.145,0.145,0],[0.5,0,0],[0.855,0.145,0],[1,0.5,0],[0.855,0.855,0],[0.5,1,0],[0.145,0.855,0],[0,0.5,0]];shape=mxgraph.bpmn.event;html=1;verticalLabelPosition=bottom;labelBackgroundColor=#ffffff;verticalAlign=top;align=center;perimeter=ellipsePerimeter;outlineConnect=0;aspect=fixed;outline=end;symbol=message;fillColor=#f8cecc;strokeColor=#b85450;" vertex="1" parent="d49fMDWEcjazd6GvnsSK-2">
          <mxGeometry x="2801" y="255" width="50" height="50" as="geometry" />
        </mxCell>
        <mxCell id="eIDD2qYjzkZ-Xh7ebVP3-99" style="edgeStyle=orthogonalEdgeStyle;rounded=0;orthogonalLoop=1;jettySize=auto;html=1;entryX=0;entryY=0.5;entryDx=0;entryDy=0;entryPerimeter=0;" edge="1" parent="d49fMDWEcjazd6GvnsSK-2" source="eIDD2qYjzkZ-Xh7ebVP3-70" target="eIDD2qYjzkZ-Xh7ebVP3-175">
          <mxGeometry relative="1" as="geometry" />
        </mxCell>
        <mxCell id="eIDD2qYjzkZ-Xh7ebVP3-100" value="A" style="edgeLabel;html=1;align=center;verticalAlign=middle;resizable=0;points=[];" vertex="1" connectable="0" parent="eIDD2qYjzkZ-Xh7ebVP3-99">
          <mxGeometry x="-0.1059" relative="1" as="geometry">
            <mxPoint as="offset" />
          </mxGeometry>
        </mxCell>
        <mxCell id="eIDD2qYjzkZ-Xh7ebVP3-70" value="¿Cierre manual&amp;nbsp;&lt;div&gt;o automático&lt;span style=&quot;background-color: light-dark(rgb(255, 255, 255), rgb(18, 18, 18)); color: light-dark(rgb(0, 0, 0), rgb(255, 255, 255));&quot;&gt;?&lt;/span&gt;&lt;/div&gt;" style="points=[[0.25,0.25,0],[0.5,0,0],[0.75,0.25,0],[1,0.5,0],[0.75,0.75,0],[0.5,1,0],[0.25,0.75,0],[0,0.5,0]];shape=mxgraph.bpmn.gateway2;html=1;verticalLabelPosition=top;labelBackgroundColor=#ffffff;verticalAlign=bottom;align=center;perimeter=rhombusPerimeter;outlineConnect=0;outline=none;symbol=none;fillColor=#d5e8d4;strokeColor=#82b366;fontSize=10;labelPosition=center;" vertex="1" parent="d49fMDWEcjazd6GvnsSK-2">
          <mxGeometry x="1305" y="255" width="50" height="50" as="geometry" />
        </mxCell>
        <mxCell id="eIDD2qYjzkZ-Xh7ebVP3-102" value="Registrar Fecha, Diagnostico y Motivo egreso" style="points=[[0.25,0,0],[0.5,0,0],[0.75,0,0],[1,0.25,0],[1,0.5,0],[1,0.75,0],[0.75,1,0],[0.5,1,0],[0.25,1,0],[0,0.75,0],[0,0.5,0],[0,0.25,0]];shape=mxgraph.bpmn.task2;whiteSpace=wrap;rectStyle=rounded;size=10;html=1;container=1;expand=0;collapsible=0;taskMarker=user;fillColor=#fff2cc;strokeColor=#d6b656;" vertex="1" parent="d49fMDWEcjazd6GvnsSK-2">
          <mxGeometry x="2100" y="520" width="120" height="80" as="geometry" />
        </mxCell>
        <mxCell id="eIDD2qYjzkZ-Xh7ebVP3-103" style="edgeStyle=orthogonalEdgeStyle;rounded=0;orthogonalLoop=1;jettySize=auto;html=1;entryX=0;entryY=0.5;entryDx=0;entryDy=0;entryPerimeter=0;" edge="1" parent="d49fMDWEcjazd6GvnsSK-2" source="eIDD2qYjzkZ-Xh7ebVP3-70" target="eIDD2qYjzkZ-Xh7ebVP3-147">
          <mxGeometry relative="1" as="geometry">
            <mxPoint x="1255" y="1030" as="targetPoint" />
            <Array as="points">
              <mxPoint x="1330" y="560" />
            </Array>
          </mxGeometry>
        </mxCell>
        <mxCell id="eIDD2qYjzkZ-Xh7ebVP3-104" value="M" style="edgeLabel;html=1;align=center;verticalAlign=middle;resizable=0;points=[];" vertex="1" connectable="0" parent="eIDD2qYjzkZ-Xh7ebVP3-103">
          <mxGeometry x="-0.4785" y="-1" relative="1" as="geometry">
            <mxPoint as="offset" />
          </mxGeometry>
        </mxCell>
        <mxCell id="eIDD2qYjzkZ-Xh7ebVP3-59" style="edgeStyle=orthogonalEdgeStyle;rounded=0;orthogonalLoop=1;jettySize=auto;html=1;" edge="1" parent="d49fMDWEcjazd6GvnsSK-2" source="eIDD2qYjzkZ-Xh7ebVP3-56" target="eIDD2qYjzkZ-Xh7ebVP3-61">
          <mxGeometry relative="1" as="geometry">
            <mxPoint x="2846" y="280" as="targetPoint" />
          </mxGeometry>
        </mxCell>
        <mxCell id="eIDD2qYjzkZ-Xh7ebVP3-124" value="¿Servicios sin&amp;nbsp;&lt;div&gt;fecha de salida&lt;span style=&quot;background-color: light-dark(rgb(255, 255, 255), rgb(18, 18, 18)); color: light-dark(rgb(0, 0, 0), rgb(255, 255, 255));&quot;&gt;?&lt;/span&gt;&lt;/div&gt;" style="points=[[0.25,0.25,0],[0.5,0,0],[0.75,0.25,0],[1,0.5,0],[0.75,0.75,0],[0.5,1,0],[0.25,0.75,0],[0,0.5,0]];shape=mxgraph.bpmn.gateway2;html=1;verticalLabelPosition=top;labelBackgroundColor=#ffffff;verticalAlign=bottom;align=center;perimeter=rhombusPerimeter;outlineConnect=0;outline=none;symbol=none;fillColor=#d5e8d4;strokeColor=#82b366;fontSize=10;labelPosition=center;" vertex="1" parent="d49fMDWEcjazd6GvnsSK-2">
          <mxGeometry x="1640" y="535" width="50" height="50" as="geometry" />
        </mxCell>
        <mxCell id="eIDD2qYjzkZ-Xh7ebVP3-126" value="Mostrar mensaje de validación" style="points=[[0.25,0,0],[0.5,0,0],[0.75,0,0],[1,0.25,0],[1,0.5,0],[1,0.75,0],[0.75,1,0],[0.5,1,0],[0.25,1,0],[0,0.75,0],[0,0.5,0],[0,0.25,0]];shape=mxgraph.bpmn.task2;whiteSpace=wrap;rectStyle=rounded;size=10;html=1;container=1;expand=0;collapsible=0;taskMarker=send;fillColor=#fff2cc;strokeColor=#d6b656;" vertex="1" parent="d49fMDWEcjazd6GvnsSK-2">
          <mxGeometry x="1710" y="665" width="120" height="80" as="geometry" />
        </mxCell>
        <mxCell id="eIDD2qYjzkZ-Xh7ebVP3-158" style="edgeStyle=orthogonalEdgeStyle;rounded=0;orthogonalLoop=1;jettySize=auto;html=1;entryX=0.5;entryY=1;entryDx=0;entryDy=0;entryPerimeter=0;" edge="1" parent="d49fMDWEcjazd6GvnsSK-2" source="eIDD2qYjzkZ-Xh7ebVP3-129" target="eIDD2qYjzkZ-Xh7ebVP3-155">
          <mxGeometry relative="1" as="geometry">
            <mxPoint x="2130" y="685" as="targetPoint" />
            <Array as="points">
              <mxPoint x="1930" y="625" />
              <mxPoint x="1775" y="625" />
            </Array>
          </mxGeometry>
        </mxCell>
        <mxCell id="eIDD2qYjzkZ-Xh7ebVP3-129" value="Registrar fecha de salida del servicio" style="points=[[0.25,0,0],[0.5,0,0],[0.75,0,0],[1,0.25,0],[1,0.5,0],[1,0.75,0],[0.75,1,0],[0.5,1,0],[0.25,1,0],[0,0.75,0],[0,0.5,0],[0,0.25,0]];shape=mxgraph.bpmn.task2;whiteSpace=wrap;rectStyle=rounded;size=10;html=1;container=1;expand=0;collapsible=0;taskMarker=user;fillColor=#fff2cc;strokeColor=#d6b656;" vertex="1" parent="d49fMDWEcjazd6GvnsSK-2">
          <mxGeometry x="1870" y="665" width="120" height="80" as="geometry" />
        </mxCell>
        <mxCell id="eIDD2qYjzkZ-Xh7ebVP3-128" style="edgeStyle=orthogonalEdgeStyle;rounded=0;orthogonalLoop=1;jettySize=auto;html=1;" edge="1" parent="d49fMDWEcjazd6GvnsSK-2" source="eIDD2qYjzkZ-Xh7ebVP3-126" target="eIDD2qYjzkZ-Xh7ebVP3-129">
          <mxGeometry relative="1" as="geometry">
            <mxPoint x="2135" y="675" as="targetPoint" />
          </mxGeometry>
        </mxCell>
        <mxCell id="eIDD2qYjzkZ-Xh7ebVP3-136" value="Fin" style="points=[[0.145,0.145,0],[0.5,0,0],[0.855,0.145,0],[1,0.5,0],[0.855,0.855,0],[0.5,1,0],[0.145,0.855,0],[0,0.5,0]];shape=mxgraph.bpmn.event;html=1;verticalLabelPosition=bottom;labelBackgroundColor=#ffffff;verticalAlign=top;align=center;perimeter=ellipsePerimeter;outlineConnect=0;aspect=fixed;outline=end;symbol=terminate;fillColor=#f8cecc;strokeColor=#b85450;" vertex="1" parent="d49fMDWEcjazd6GvnsSK-2">
          <mxGeometry x="2860" y="535" width="50" height="50" as="geometry" />
        </mxCell>
        <mxCell id="eIDD2qYjzkZ-Xh7ebVP3-135" style="edgeStyle=orthogonalEdgeStyle;rounded=0;orthogonalLoop=1;jettySize=auto;html=1;exitX=1;exitY=0.5;exitDx=0;exitDy=0;exitPerimeter=0;" edge="1" parent="d49fMDWEcjazd6GvnsSK-2" source="eIDD2qYjzkZ-Xh7ebVP3-58" target="eIDD2qYjzkZ-Xh7ebVP3-136">
          <mxGeometry relative="1" as="geometry">
            <mxPoint x="3150" y="515" as="targetPoint" />
            <mxPoint x="3100" y="515" as="sourcePoint" />
          </mxGeometry>
        </mxCell>
        <mxCell id="eIDD2qYjzkZ-Xh7ebVP3-139" style="edgeStyle=orthogonalEdgeStyle;rounded=0;orthogonalLoop=1;jettySize=auto;html=1;" edge="1" parent="d49fMDWEcjazd6GvnsSK-2" source="eIDD2qYjzkZ-Xh7ebVP3-138" target="eIDD2qYjzkZ-Xh7ebVP3-54">
          <mxGeometry relative="1" as="geometry" />
        </mxCell>
        <mxCell id="eIDD2qYjzkZ-Xh7ebVP3-138" value="" style="points=[[0.25,0.25,0],[0.5,0,0],[0.75,0.25,0],[1,0.5,0],[0.75,0.75,0],[0.5,1,0],[0.25,0.75,0],[0,0.5,0]];shape=mxgraph.bpmn.gateway2;html=1;verticalLabelPosition=bottom;labelBackgroundColor=#ffffff;verticalAlign=top;align=center;perimeter=rhombusPerimeter;outlineConnect=0;outline=none;symbol=none;gwType=exclusive;fillColor=#d5e8d4;strokeColor=#82b366;" vertex="1" parent="d49fMDWEcjazd6GvnsSK-2">
          <mxGeometry x="1956" y="255" width="50" height="50" as="geometry" />
        </mxCell>
        <mxCell id="eIDD2qYjzkZ-Xh7ebVP3-55" style="edgeStyle=orthogonalEdgeStyle;rounded=0;orthogonalLoop=1;jettySize=auto;html=1;entryX=0;entryY=0.5;entryDx=0;entryDy=0;entryPerimeter=0;" edge="1" parent="d49fMDWEcjazd6GvnsSK-2" source="eIDD2qYjzkZ-Xh7ebVP3-51" target="eIDD2qYjzkZ-Xh7ebVP3-138">
          <mxGeometry relative="1" as="geometry">
            <mxPoint x="2601" y="280" as="targetPoint" />
          </mxGeometry>
        </mxCell>
        <mxCell id="eIDD2qYjzkZ-Xh7ebVP3-173" style="edgeStyle=orthogonalEdgeStyle;rounded=0;orthogonalLoop=1;jettySize=auto;html=1;" edge="1" parent="d49fMDWEcjazd6GvnsSK-2" source="eIDD2qYjzkZ-Xh7ebVP3-45" target="eIDD2qYjzkZ-Xh7ebVP3-70">
          <mxGeometry relative="1" as="geometry" />
        </mxCell>
        <mxCell id="eIDD2qYjzkZ-Xh7ebVP3-174" value="SI" style="edgeLabel;html=1;align=center;verticalAlign=middle;resizable=0;points=[];" vertex="1" connectable="0" parent="eIDD2qYjzkZ-Xh7ebVP3-173">
          <mxGeometry x="0.0154" y="1" relative="1" as="geometry">
            <mxPoint as="offset" />
          </mxGeometry>
        </mxCell>
        <mxCell id="eIDD2qYjzkZ-Xh7ebVP3-45" value="¿Formato concurrencia&amp;nbsp;&lt;div&gt;en estado ABIERTO?&lt;/div&gt;" style="points=[[0.25,0.25,0],[0.5,0,0],[0.75,0.25,0],[1,0.5,0],[0.75,0.75,0],[0.5,1,0],[0.25,0.75,0],[0,0.5,0]];shape=mxgraph.bpmn.gateway2;html=1;verticalLabelPosition=top;labelBackgroundColor=#ffffff;verticalAlign=bottom;align=center;perimeter=rhombusPerimeter;outlineConnect=0;outline=none;symbol=none;fillColor=#d5e8d4;strokeColor=#82b366;fontSize=10;labelPosition=center;" vertex="1" parent="d49fMDWEcjazd6GvnsSK-2">
          <mxGeometry x="1190" y="255" width="50" height="50" as="geometry" />
        </mxCell>
        <mxCell id="eIDD2qYjzkZ-Xh7ebVP3-64" value="Inicio" style="points=[[0.145,0.145,0],[0.5,0,0],[0.855,0.145,0],[1,0.5,0],[0.855,0.855,0],[0.5,1,0],[0.145,0.855,0],[0,0.5,0]];shape=mxgraph.bpmn.event;html=1;verticalLabelPosition=bottom;labelBackgroundColor=#ffffff;verticalAlign=top;align=center;perimeter=ellipsePerimeter;outlineConnect=0;aspect=fixed;outline=standard;symbol=general;fillColor=#f8cecc;strokeColor=#b85450;" vertex="1" parent="d49fMDWEcjazd6GvnsSK-2">
          <mxGeometry x="710" y="275" width="50" height="50" as="geometry" />
        </mxCell>
        <mxCell id="eIDD2qYjzkZ-Xh7ebVP3-65" value="Ingresar a Formato de concurrencia (Auditor o Gestor)" style="points=[[0.25,0,0],[0.5,0,0],[0.75,0,0],[1,0.25,0],[1,0.5,0],[1,0.75,0],[0.75,1,0],[0.5,1,0],[0.25,1,0],[0,0.75,0],[0,0.5,0],[0,0.25,0]];shape=mxgraph.bpmn.task2;whiteSpace=wrap;rectStyle=rounded;size=10;html=1;container=1;expand=0;collapsible=0;taskMarker=user;fillColor=#fff2cc;strokeColor=#d6b656;" vertex="1" parent="d49fMDWEcjazd6GvnsSK-2">
          <mxGeometry x="810" y="260" width="120" height="80" as="geometry" />
        </mxCell>
        <mxCell id="eIDD2qYjzkZ-Xh7ebVP3-66" style="edgeStyle=orthogonalEdgeStyle;rounded=0;orthogonalLoop=1;jettySize=auto;html=1;entryX=0;entryY=0.5;entryDx=0;entryDy=0;entryPerimeter=0;" edge="1" parent="d49fMDWEcjazd6GvnsSK-2" source="eIDD2qYjzkZ-Xh7ebVP3-64" target="eIDD2qYjzkZ-Xh7ebVP3-65">
          <mxGeometry relative="1" as="geometry" />
        </mxCell>
        <mxCell id="eIDD2qYjzkZ-Xh7ebVP3-68" value="Registrar egreso manual en pestaña &quot;Egreso&quot;" style="points=[[0.25,0,0],[0.5,0,0],[0.75,0,0],[1,0.25,0],[1,0.5,0],[1,0.75,0],[0.75,1,0],[0.5,1,0],[0.25,1,0],[0,0.75,0],[0,0.5,0],[0,0.25,0]];shape=mxgraph.bpmn.task2;whiteSpace=wrap;rectStyle=rounded;size=10;html=1;container=1;expand=0;collapsible=0;taskMarker=script;fillColor=#fff2cc;strokeColor=#d6b656;" vertex="1" parent="d49fMDWEcjazd6GvnsSK-2">
          <mxGeometry x="970" y="260" width="120" height="80" as="geometry" />
        </mxCell>
        <mxCell id="eIDD2qYjzkZ-Xh7ebVP3-69" style="edgeStyle=orthogonalEdgeStyle;rounded=0;orthogonalLoop=1;jettySize=auto;html=1;" edge="1" parent="d49fMDWEcjazd6GvnsSK-2" source="eIDD2qYjzkZ-Xh7ebVP3-65" target="eIDD2qYjzkZ-Xh7ebVP3-68">
          <mxGeometry relative="1" as="geometry">
            <mxPoint x="980" y="300" as="targetPoint" />
          </mxGeometry>
        </mxCell>
        <mxCell id="eIDD2qYjzkZ-Xh7ebVP3-149" style="edgeStyle=orthogonalEdgeStyle;rounded=0;orthogonalLoop=1;jettySize=auto;html=1;entryX=0;entryY=0.5;entryDx=0;entryDy=0;entryPerimeter=0;" edge="1" parent="d49fMDWEcjazd6GvnsSK-2" source="eIDD2qYjzkZ-Xh7ebVP3-146" target="eIDD2qYjzkZ-Xh7ebVP3-124">
          <mxGeometry relative="1" as="geometry" />
        </mxCell>
        <mxCell id="eIDD2qYjzkZ-Xh7ebVP3-146" value="Clic botón&lt;div&gt;&quot;Agregar Egreso&quot;&lt;/div&gt;" style="points=[[0.145,0.145,0],[0.5,0,0],[0.855,0.145,0],[1,0.5,0],[0.855,0.855,0],[0.5,1,0],[0.145,0.855,0],[0,0.5,0]];shape=mxgraph.bpmn.event;html=1;verticalLabelPosition=bottom;labelBackgroundColor=#ffffff;verticalAlign=top;align=center;perimeter=ellipsePerimeter;outlineConnect=0;aspect=fixed;outline=throwing;symbol=general;fillColor=#f5f5f5;fontColor=#333333;strokeColor=#666666;" vertex="1" parent="d49fMDWEcjazd6GvnsSK-2">
          <mxGeometry x="1550" y="535" width="50" height="50" as="geometry" />
        </mxCell>
        <mxCell id="eIDD2qYjzkZ-Xh7ebVP3-148" style="edgeStyle=orthogonalEdgeStyle;rounded=0;orthogonalLoop=1;jettySize=auto;html=1;" edge="1" parent="d49fMDWEcjazd6GvnsSK-2" source="eIDD2qYjzkZ-Xh7ebVP3-147" target="eIDD2qYjzkZ-Xh7ebVP3-146">
          <mxGeometry relative="1" as="geometry" />
        </mxCell>
        <mxCell id="eIDD2qYjzkZ-Xh7ebVP3-147" value="Ubicarse en pestaña &quot;Egreso&quot;" style="points=[[0.25,0,0],[0.5,0,0],[0.75,0,0],[1,0.25,0],[1,0.5,0],[1,0.75,0],[0.75,1,0],[0.5,1,0],[0.25,1,0],[0,0.75,0],[0,0.5,0],[0,0.25,0]];shape=mxgraph.bpmn.task2;whiteSpace=wrap;rectStyle=rounded;size=10;html=1;container=1;expand=0;collapsible=0;taskMarker=user;fillColor=#fff2cc;strokeColor=#d6b656;" vertex="1" parent="d49fMDWEcjazd6GvnsSK-2">
          <mxGeometry x="1390" y="520" width="120" height="80" as="geometry" />
        </mxCell>
        <mxCell id="eIDD2qYjzkZ-Xh7ebVP3-152" style="edgeStyle=orthogonalEdgeStyle;rounded=0;orthogonalLoop=1;jettySize=auto;html=1;entryX=0;entryY=0.5;entryDx=0;entryDy=0;entryPerimeter=0;" edge="1" parent="d49fMDWEcjazd6GvnsSK-2" source="eIDD2qYjzkZ-Xh7ebVP3-151" target="eIDD2qYjzkZ-Xh7ebVP3-161">
          <mxGeometry relative="1" as="geometry" />
        </mxCell>
        <mxCell id="eIDD2qYjzkZ-Xh7ebVP3-151" value="Habilitar campos para agregar egreso" style="points=[[0.25,0,0],[0.5,0,0],[0.75,0,0],[1,0.25,0],[1,0.5,0],[1,0.75,0],[0.75,1,0],[0.5,1,0],[0.25,1,0],[0,0.75,0],[0,0.5,0],[0,0.25,0]];shape=mxgraph.bpmn.task2;whiteSpace=wrap;rectStyle=rounded;size=10;html=1;container=1;expand=0;collapsible=0;taskMarker=script;fillColor=#fff2cc;strokeColor=#d6b656;" vertex="1" parent="d49fMDWEcjazd6GvnsSK-2">
          <mxGeometry x="1850" y="520" width="120" height="80" as="geometry" />
        </mxCell>
        <mxCell id="eIDD2qYjzkZ-Xh7ebVP3-154" style="edgeStyle=orthogonalEdgeStyle;rounded=0;orthogonalLoop=1;jettySize=auto;html=1;entryX=0;entryY=0.5;entryDx=0;entryDy=0;entryPerimeter=0;" edge="1" parent="d49fMDWEcjazd6GvnsSK-2" source="eIDD2qYjzkZ-Xh7ebVP3-124" target="eIDD2qYjzkZ-Xh7ebVP3-126">
          <mxGeometry relative="1" as="geometry">
            <Array as="points">
              <mxPoint x="1665" y="705" />
            </Array>
          </mxGeometry>
        </mxCell>
        <mxCell id="eIDD2qYjzkZ-Xh7ebVP3-157" value="NO" style="edgeLabel;html=1;align=center;verticalAlign=middle;resizable=0;points=[];" vertex="1" connectable="0" parent="eIDD2qYjzkZ-Xh7ebVP3-154">
          <mxGeometry x="-0.4872" relative="1" as="geometry">
            <mxPoint as="offset" />
          </mxGeometry>
        </mxCell>
        <mxCell id="eIDD2qYjzkZ-Xh7ebVP3-156" style="edgeStyle=orthogonalEdgeStyle;rounded=0;orthogonalLoop=1;jettySize=auto;html=1;" edge="1" parent="d49fMDWEcjazd6GvnsSK-2" source="eIDD2qYjzkZ-Xh7ebVP3-155" target="eIDD2qYjzkZ-Xh7ebVP3-151">
          <mxGeometry relative="1" as="geometry" />
        </mxCell>
        <mxCell id="eIDD2qYjzkZ-Xh7ebVP3-155" value="" style="points=[[0.25,0.25,0],[0.5,0,0],[0.75,0.25,0],[1,0.5,0],[0.75,0.75,0],[0.5,1,0],[0.25,0.75,0],[0,0.5,0]];shape=mxgraph.bpmn.gateway2;html=1;verticalLabelPosition=bottom;labelBackgroundColor=#ffffff;verticalAlign=top;align=center;perimeter=rhombusPerimeter;outlineConnect=0;outline=end;symbol=general;fillColor=#d5e8d4;strokeColor=#82b366;" vertex="1" parent="d49fMDWEcjazd6GvnsSK-2">
          <mxGeometry x="1750" y="535" width="50" height="50" as="geometry" />
        </mxCell>
        <mxCell id="eIDD2qYjzkZ-Xh7ebVP3-150" style="edgeStyle=orthogonalEdgeStyle;rounded=0;orthogonalLoop=1;jettySize=auto;html=1;entryX=0;entryY=0.5;entryDx=0;entryDy=0;entryPerimeter=0;" edge="1" parent="d49fMDWEcjazd6GvnsSK-2" source="eIDD2qYjzkZ-Xh7ebVP3-124" target="eIDD2qYjzkZ-Xh7ebVP3-155">
          <mxGeometry relative="1" as="geometry">
            <mxPoint x="1740" y="560" as="targetPoint" />
          </mxGeometry>
        </mxCell>
        <mxCell id="eIDD2qYjzkZ-Xh7ebVP3-153" value="SI" style="edgeLabel;html=1;align=center;verticalAlign=middle;resizable=0;points=[];" vertex="1" connectable="0" parent="eIDD2qYjzkZ-Xh7ebVP3-150">
          <mxGeometry x="-0.16" relative="1" as="geometry">
            <mxPoint as="offset" />
          </mxGeometry>
        </mxCell>
        <mxCell id="eIDD2qYjzkZ-Xh7ebVP3-160" value="¿Fecha Egreso &amp;gt;&amp;nbsp;&lt;div&gt;Fecha Salida&amp;nbsp;&lt;/div&gt;&lt;div&gt;de los servicios?&lt;/div&gt;" style="points=[[0.25,0.25,0],[0.5,0,0],[0.75,0.25,0],[1,0.5,0],[0.75,0.75,0],[0.5,1,0],[0.25,0.75,0],[0,0.5,0]];shape=mxgraph.bpmn.gateway2;html=1;verticalLabelPosition=top;labelBackgroundColor=#ffffff;verticalAlign=bottom;align=center;perimeter=rhombusPerimeter;outlineConnect=0;outline=none;symbol=none;fillColor=#d5e8d4;strokeColor=#82b366;fontSize=10;labelPosition=center;" vertex="1" parent="d49fMDWEcjazd6GvnsSK-2">
          <mxGeometry x="2270" y="535" width="50" height="50" as="geometry" />
        </mxCell>
        <mxCell id="eIDD2qYjzkZ-Xh7ebVP3-159" style="edgeStyle=orthogonalEdgeStyle;rounded=0;orthogonalLoop=1;jettySize=auto;html=1;" edge="1" parent="d49fMDWEcjazd6GvnsSK-2" source="eIDD2qYjzkZ-Xh7ebVP3-102" target="eIDD2qYjzkZ-Xh7ebVP3-160">
          <mxGeometry relative="1" as="geometry">
            <mxPoint x="2270" y="560" as="targetPoint" />
          </mxGeometry>
        </mxCell>
        <mxCell id="eIDD2qYjzkZ-Xh7ebVP3-162" style="edgeStyle=orthogonalEdgeStyle;rounded=0;orthogonalLoop=1;jettySize=auto;html=1;" edge="1" parent="d49fMDWEcjazd6GvnsSK-2" source="eIDD2qYjzkZ-Xh7ebVP3-161" target="eIDD2qYjzkZ-Xh7ebVP3-102">
          <mxGeometry relative="1" as="geometry" />
        </mxCell>
        <mxCell id="eIDD2qYjzkZ-Xh7ebVP3-161" value="" style="points=[[0.25,0.25,0],[0.5,0,0],[0.75,0.25,0],[1,0.5,0],[0.75,0.75,0],[0.5,1,0],[0.25,0.75,0],[0,0.5,0]];shape=mxgraph.bpmn.gateway2;html=1;verticalLabelPosition=bottom;labelBackgroundColor=#ffffff;verticalAlign=top;align=center;perimeter=rhombusPerimeter;outlineConnect=0;outline=end;symbol=general;fillColor=#d5e8d4;strokeColor=#82b366;" vertex="1" parent="d49fMDWEcjazd6GvnsSK-2">
          <mxGeometry x="2010" y="535" width="50" height="50" as="geometry" />
        </mxCell>
        <mxCell id="eIDD2qYjzkZ-Xh7ebVP3-163" style="edgeStyle=orthogonalEdgeStyle;rounded=0;orthogonalLoop=1;jettySize=auto;html=1;entryX=0.5;entryY=1;entryDx=0;entryDy=0;entryPerimeter=0;" edge="1" parent="d49fMDWEcjazd6GvnsSK-2" source="eIDD2qYjzkZ-Xh7ebVP3-160" target="eIDD2qYjzkZ-Xh7ebVP3-161">
          <mxGeometry relative="1" as="geometry">
            <Array as="points">
              <mxPoint x="2295" y="645" />
              <mxPoint x="2035" y="645" />
            </Array>
          </mxGeometry>
        </mxCell>
        <mxCell id="eIDD2qYjzkZ-Xh7ebVP3-164" value="NO" style="edgeLabel;html=1;align=center;verticalAlign=middle;resizable=0;points=[];" vertex="1" connectable="0" parent="eIDD2qYjzkZ-Xh7ebVP3-163">
          <mxGeometry x="0.0105" y="-2" relative="1" as="geometry">
            <mxPoint as="offset" />
          </mxGeometry>
        </mxCell>
        <mxCell id="eIDD2qYjzkZ-Xh7ebVP3-167" value="Mostrar mensaje de registro exitoso de egreso" style="points=[[0.25,0,0],[0.5,0,0],[0.75,0,0],[1,0.25,0],[1,0.5,0],[1,0.75,0],[0.75,1,0],[0.5,1,0],[0.25,1,0],[0,0.75,0],[0,0.5,0],[0,0.25,0]];shape=mxgraph.bpmn.task2;whiteSpace=wrap;rectStyle=rounded;size=10;html=1;container=1;expand=0;collapsible=0;taskMarker=send;fillColor=#fff2cc;strokeColor=#d6b656;" vertex="1" parent="d49fMDWEcjazd6GvnsSK-2">
          <mxGeometry x="2380" y="520" width="120" height="80" as="geometry" />
        </mxCell>
        <mxCell id="eIDD2qYjzkZ-Xh7ebVP3-165" style="edgeStyle=orthogonalEdgeStyle;rounded=0;orthogonalLoop=1;jettySize=auto;html=1;" edge="1" parent="d49fMDWEcjazd6GvnsSK-2" source="eIDD2qYjzkZ-Xh7ebVP3-160" target="eIDD2qYjzkZ-Xh7ebVP3-167">
          <mxGeometry relative="1" as="geometry">
            <mxPoint x="2380" y="555" as="targetPoint" />
          </mxGeometry>
        </mxCell>
        <mxCell id="eIDD2qYjzkZ-Xh7ebVP3-166" value="SI" style="edgeLabel;html=1;align=center;verticalAlign=middle;resizable=0;points=[];" vertex="1" connectable="0" parent="eIDD2qYjzkZ-Xh7ebVP3-165">
          <mxGeometry x="0.0909" relative="1" as="geometry">
            <mxPoint as="offset" />
          </mxGeometry>
        </mxCell>
        <mxCell id="eIDD2qYjzkZ-Xh7ebVP3-172" style="edgeStyle=orthogonalEdgeStyle;rounded=0;orthogonalLoop=1;jettySize=auto;html=1;" edge="1" parent="d49fMDWEcjazd6GvnsSK-2" source="eIDD2qYjzkZ-Xh7ebVP3-169" target="eIDD2qYjzkZ-Xh7ebVP3-58">
          <mxGeometry relative="1" as="geometry" />
        </mxCell>
        <mxCell id="eIDD2qYjzkZ-Xh7ebVP3-169" value="Inhabilitar botón &quot;Agregar Egreso&quot;" style="points=[[0.25,0,0],[0.5,0,0],[0.75,0,0],[1,0.25,0],[1,0.5,0],[1,0.75,0],[0.75,1,0],[0.5,1,0],[0.25,1,0],[0,0.75,0],[0,0.5,0],[0,0.25,0]];shape=mxgraph.bpmn.task2;whiteSpace=wrap;rectStyle=rounded;size=10;html=1;container=1;expand=0;collapsible=0;taskMarker=script;fillColor=#fff2cc;strokeColor=#d6b656;" vertex="1" parent="d49fMDWEcjazd6GvnsSK-2">
          <mxGeometry x="2540" y="520" width="120" height="80" as="geometry" />
        </mxCell>
        <mxCell id="eIDD2qYjzkZ-Xh7ebVP3-168" style="edgeStyle=orthogonalEdgeStyle;rounded=0;orthogonalLoop=1;jettySize=auto;html=1;" edge="1" parent="d49fMDWEcjazd6GvnsSK-2" source="eIDD2qYjzkZ-Xh7ebVP3-167" target="eIDD2qYjzkZ-Xh7ebVP3-169">
          <mxGeometry relative="1" as="geometry">
            <mxPoint x="2560" y="560" as="targetPoint" />
          </mxGeometry>
        </mxCell>
        <mxCell id="eIDD2qYjzkZ-Xh7ebVP3-175" value="Validar estado del formato" style="points=[[0.25,0,0],[0.5,0,0],[0.75,0,0],[1,0.25,0],[1,0.5,0],[1,0.75,0],[0.75,1,0],[0.5,1,0],[0.25,1,0],[0,0.75,0],[0,0.5,0],[0,0.25,0]];shape=mxgraph.bpmn.task2;whiteSpace=wrap;rectStyle=rounded;size=10;html=1;container=1;expand=0;collapsible=0;taskMarker=script;fillColor=#fff2cc;strokeColor=#d6b656;" vertex="1" parent="d49fMDWEcjazd6GvnsSK-2">
          <mxGeometry x="1410" y="240" width="120" height="80" as="geometry" />
        </mxCell>
        <mxCell id="d49fMDWEcjazd6GvnsSK-10" style="edgeStyle=orthogonalEdgeStyle;rounded=0;orthogonalLoop=1;jettySize=auto;html=1;" parent="1" source="d49fMDWEcjazd6GvnsSK-9" target="d49fMDWEcjazd6GvnsSK-11" edge="1">
          <mxGeometry relative="1" as="geometry">
            <mxPoint x="350" y="125" as="targetPoint" />
          </mxGeometry>
        </mxCell>
        <mxCell id="d49fMDWEcjazd6GvnsSK-9" value="Ingresar a ZonaSer Prestador módulo &quot;Consulta de Solicitudes&quot;" style="points=[[0.25,0,0],[0.5,0,0],[0.75,0,0],[1,0.25,0],[1,0.5,0],[1,0.75,0],[0.75,1,0],[0.5,1,0],[0.25,1,0],[0,0.75,0],[0,0.5,0],[0,0.25,0]];shape=mxgraph.bpmn.task2;whiteSpace=wrap;rectStyle=rounded;size=10;html=1;container=1;expand=0;collapsible=0;taskMarker=user;fillColor=#fff2cc;strokeColor=#d6b656;" parent="1" vertex="1">
          <mxGeometry x="170" y="85" width="120" height="80" as="geometry" />
        </mxCell>
        <mxCell id="d49fMDWEcjazd6GvnsSK-8" style="edgeStyle=orthogonalEdgeStyle;rounded=0;orthogonalLoop=1;jettySize=auto;html=1;" parent="1" source="d49fMDWEcjazd6GvnsSK-5" target="d49fMDWEcjazd6GvnsSK-9" edge="1">
          <mxGeometry relative="1" as="geometry">
            <mxPoint x="230" y="125" as="targetPoint" />
          </mxGeometry>
        </mxCell>
      </root>
    </mxGraphModel>
  </diagram>
</mxfile>
